<svg width="115" height="32" viewBox="0 0 115 32" fill="none" xmlns="http://www.w3.org/2000/svg">
<path fill-rule="evenodd" clip-rule="evenodd" d="M89.3333 0H0V32H89.3333H98.6667H106.063L114.667 16L106.063 0H98.6667H89.3333Z" fill="#40BFA3"/>
<path d="M34.321 21.182C36.414 21.182 37.675 20.025 37.675 18.4C37.675 16.905 36.648 16.203 34.854 15.657C33.437 15.202 32.826 14.955 32.826 14.253C32.826 13.525 33.463 13.057 34.503 13.057C35.387 13.057 36.115 13.33 36.687 13.824L37.506 12.68C36.986 12.121 35.868 11.666 34.555 11.666C32.345 11.666 31.201 12.862 31.201 14.318C31.201 15.852 32.293 16.515 34.126 17.035C35.4 17.399 36.05 17.724 36.05 18.478C36.05 19.375 35.322 19.791 34.295 19.791C33.112 19.791 32.176 19.232 31.708 18.79L30.889 19.973C31.591 20.636 32.839 21.182 34.321 21.182ZM44.2129 14.773L44.6289 14.11L43.8489 13.681L43.4719 14.292C43.0299 14.097 42.5229 14.006 41.9899 14.006C40.1439 14.006 38.7139 15.124 38.7139 17.581C38.7139 18.868 39.1039 19.791 39.7409 20.376L39.3509 21.013L40.1049 21.429L40.4559 20.857C40.9109 21.065 41.4309 21.169 41.9899 21.169C43.8359 21.169 45.2659 20.051 45.2659 17.581C45.2659 16.281 44.8629 15.358 44.2129 14.773ZM40.2739 17.581C40.2739 16.008 40.9369 15.293 41.9899 15.293C42.2759 15.293 42.5359 15.345 42.7569 15.449L40.5599 19.05C40.3779 18.686 40.2739 18.192 40.2739 17.581ZM41.9899 19.882C41.6779 19.882 41.4049 19.83 41.1839 19.7L43.3939 16.099C43.6019 16.463 43.7059 16.957 43.7059 17.581C43.7059 19.154 43.0299 19.882 41.9899 19.882ZM51.2463 21H52.9103L50.2843 16.775L52.7023 14.162H50.9993L48.2433 17.139V11.445H46.7093V21H48.2433V18.829L49.2573 17.828L51.2463 21ZM60.4765 14.006C59.4105 14.006 58.8125 14.539 58.5265 15.033V11.445H56.9925V21H58.5265V16.775C58.5265 15.93 59.0855 15.293 60.0345 15.293C60.9965 15.293 61.3865 15.917 61.3865 16.775V21H62.9205V16.45C62.9205 14.929 61.9715 14.006 60.4765 14.006ZM70.3916 18.01C70.4176 17.763 70.4436 17.451 70.4436 17.113C70.4436 15.202 69.2996 14.006 67.4926 14.006C65.7506 14.006 64.3076 15.124 64.3076 17.594C64.3076 20.064 65.7636 21.169 67.6876 21.169C68.7146 21.169 69.6376 20.844 70.2746 20.142L69.5466 19.18C69.0266 19.687 68.4416 19.882 67.8046 19.882C66.6996 19.882 65.9456 19.297 65.8156 18.01H70.3916ZM67.4536 15.241C68.4026 15.241 68.9486 15.787 69.0266 16.944H65.8286C65.9716 15.774 66.5826 15.241 67.4536 15.241ZM75.2765 14.071C74.0675 14.071 73.5475 14.968 73.3655 15.67V14.162H71.9095V21H73.4435V17.88C73.4435 16.372 74.1195 15.644 75.1075 15.644C75.3415 15.644 75.5755 15.683 75.7185 15.722L76.0435 14.201C75.9135 14.136 75.6275 14.071 75.2765 14.071Z" fill="#E5F2FF"/>
</svg>
