<svg width="127" height="37" viewBox="0 0 127 37" fill="none" xmlns="http://www.w3.org/2000/svg">
<g filter="url(#filter0_d)">
<path d="M65.0901 14.5694C62.7441 14.7388 60.8673 16.6447 60.6967 18.9741C60.5261 21.7271 62.7014 24.0141 65.474 24.0141C66.455 24.0141 67.8199 23.5059 68.4171 22.4894V23.8871H70.2512V19.3553C70.2085 16.4329 67.8199 14.3577 65.0901 14.5694ZM68.2038 19.3977C68.1185 20.9647 66.7536 22.1506 65.1327 21.9812C63.8958 21.8118 62.9147 20.8377 62.7441 19.6094C62.5735 17.9577 63.8531 16.56 65.474 16.56C66.9242 16.56 68.1612 17.7035 68.2038 19.1435V19.3977Z" fill="white"/>
<path d="M54.9811 14.5271C52.4645 14.6118 50.3318 16.5176 50.3318 19.3129C50.3318 21.8541 52.4218 24.0141 55.109 24.0141C56.9858 24.0141 58.8199 22.9129 59.5451 21.0918L57.7109 20.5412C57.3697 21.3035 56.5593 21.9388 55.6635 22.1082C54.3839 22.3624 53.1896 21.5577 52.7204 20.7106L59.8436 18.7624C59.6304 16.9412 58.0095 14.4424 54.9811 14.5271ZM52.3365 19.0588C52.3365 18.0847 52.9337 16.9412 54.2133 16.4329C55.6635 15.8824 56.9432 16.6024 57.4977 17.6188L52.3365 19.0588Z" fill="white"/>
<path d="M39.2844 16.4753V14.527C37.4929 14.527 36.8531 15.4165 36.5972 15.8823V14.8235H34.5498V19.1435V23.8447H36.6399C36.6399 21.0494 36.6399 21.0917 36.6399 19.3976C36.6399 17.3647 37.8768 16.5176 39.2844 16.4753Z" fill="white"/>
<path d="M20.4313 20.2447L14.2038 12.96H12.1138V23.8447H14.2891V16.56L20.6019 23.887H22.564V12.96H20.4313V20.2447Z" fill="white"/>
<path d="M49.0521 11.9859H47.09V15.5435C46.6209 14.9506 45.1706 14.4423 43.9336 14.5694C41.5877 14.7388 39.7109 16.6447 39.5403 18.9741C39.3697 21.727 41.545 24.0141 44.3175 24.0141C45.3412 24.0141 46.7488 23.5482 47.2607 22.6588V23.887H49.0948V19.3553C49.0948 19.3129 49.0948 19.3129 49.0948 19.2706C49.0948 19.2282 49.0948 19.2282 49.0948 19.1859V11.9859H49.0521ZM47.0474 19.3976C46.9621 20.9647 45.5972 22.1506 43.9763 21.9812C42.7393 21.8118 41.7156 20.8376 41.5877 19.6094C41.4171 17.9576 42.6967 16.56 44.3175 16.56C45.7678 16.56 47.0047 17.7035 47.0474 19.1435V19.3976Z" fill="white"/>
<path d="M28.5356 14.527C25.891 14.527 23.7583 16.6447 23.7583 19.2706C23.7583 21.8964 25.891 24.0141 28.5356 24.0141C31.1801 24.0141 33.3128 21.8964 33.3128 19.2706C33.3128 16.6447 31.1801 14.527 28.5356 14.527ZM28.5356 21.9812C27 21.9812 25.8057 20.7529 25.8057 19.2706C25.8057 17.7459 27.0427 16.56 28.5356 16.56C30.0711 16.56 31.2654 17.7882 31.2654 19.2706C31.3081 20.7953 30.0711 21.9812 28.5356 21.9812Z" fill="white"/>
<path d="M84.6256 18.4235C84.6256 21.9811 82.6209 23.8447 79.6351 23.8447H76.0522V12.96H79.6351C82.6209 12.96 84.6256 14.8235 84.6256 18.4235ZM83.1754 18.4235C83.1754 16.2211 82.237 14.1882 79.5925 14.1882H77.4171V22.6588H79.5925C82.237 22.6588 83.1754 20.5835 83.1754 18.4235Z" fill="white"/>
<path d="M86.1185 13.5953C86.1185 13.087 86.5024 12.7059 87.0569 12.7059C87.5688 12.7059 87.9953 13.087 87.9953 13.5953C87.9953 14.1035 87.6114 14.4847 87.0569 14.4847C86.5024 14.4847 86.1185 14.1035 86.1185 13.5953ZM88.4218 22.9129V23.8447C88.2512 23.887 88.0806 23.9294 87.8673 23.9294C86.8863 23.9294 86.3745 23.3365 86.3745 22.1506V15.7976H87.6967V22.1082C87.6967 22.6588 87.91 22.9129 88.4218 22.9129Z" fill="white"/>
<path d="M94.1801 15.7977L93.8816 17.1106C93.711 17.0682 93.455 17.0259 93.1991 17.0259C91.9195 17.0259 91.237 18.1271 91.237 19.8212V23.8447H89.9147V15.7553H91.1944V17.4071C91.4076 16.6024 92.0474 15.6706 93.3271 15.6706C93.7536 15.6706 94.0522 15.7553 94.1801 15.7977Z" fill="white"/>
<path d="M101.346 22.8706C100.621 23.6753 99.5545 24.0565 98.4029 24.0565C96.2275 24.0565 94.5214 22.7435 94.5214 19.9059C94.5214 16.9412 96.3128 15.6282 98.3176 15.6282C100.066 15.6282 101.175 16.6024 101.175 18.0424C101.175 19.5671 99.9811 20.4565 97.5925 20.4565C97.0379 20.4565 96.3981 20.4141 95.8436 20.3294C96.0142 22.1082 97.0379 22.9129 98.4882 22.9129C99.2986 22.9129 100.024 22.6588 100.664 22.0235L101.346 22.8706ZM95.8436 19.3553C96.3128 19.44 96.8673 19.4824 97.4218 19.4824C99.256 19.4824 99.8958 18.8894 99.8958 18.0424C99.8958 17.2376 99.256 16.6871 98.2749 16.6871C96.9953 16.6871 95.9716 17.5341 95.8436 19.3553Z" fill="white"/>
<path d="M106.081 24.0565C103.991 24.0565 102.284 22.7435 102.284 19.8212C102.284 16.8988 104.033 15.5859 106.123 15.5859C107.275 15.5859 108.128 15.9247 108.725 16.5176L108 17.4071C107.531 16.9412 106.976 16.7294 106.209 16.7294C104.758 16.7294 103.692 17.7035 103.692 19.8212C103.692 21.9388 104.716 22.9129 106.166 22.9129C107.019 22.9129 107.574 22.5741 108.085 22.0659L108.853 22.8282C108.384 23.4212 107.574 24.0565 106.081 24.0565Z" fill="white"/>
<path d="M110.73 21.6847V16.8141H109.365V15.7553H110.73V13.5953H112.052V15.7553H114.014V16.8141H112.052V21.3882C112.052 22.32 112.351 22.8282 113.374 22.8282C113.588 22.8282 113.758 22.8282 114.014 22.7435V23.8023C113.801 23.887 113.417 23.9717 113.033 23.9717C111.37 23.9717 110.73 23.1247 110.73 21.6847Z" fill="white"/>
</g>
<defs>
<filter id="filter0_d" x="-12" y="-12" width="150" height="60" filterUnits="userSpaceOnUse" color-interpolation-filters="sRGB">
<feFlood flood-opacity="0" result="BackgroundImageFix"/>
<feColorMatrix in="SourceAlpha" type="matrix" values="0 0 0 0 0 0 0 0 0 0 0 0 0 0 0 0 0 0 127 0"/>
<feOffset/>
<feGaussianBlur stdDeviation="6"/>
<feColorMatrix type="matrix" values="0 0 0 0 0 0 0 0 0 0 0 0 0 0 0 0 0 0 1 0"/>
<feBlend mode="normal" in2="BackgroundImageFix" result="effect1_dropShadow"/>
<feBlend mode="normal" in="SourceGraphic" in2="effect1_dropShadow" result="shape"/>
</filter>
</defs>
</svg>
