<svg width="134" height="116" viewBox="0 0 134 116" fill="none" xmlns="http://www.w3.org/2000/svg">
<mask id="mask0" mask-type="alpha" maskUnits="userSpaceOnUse" x="0" y="0" width="134" height="116">
<rect x="0.599976" width="133.4" height="116" fill="#C4C4C4"/>
</mask>
<g mask="url(#mask0)">
<g clip-path="url(#clip0)">
<path d="M83.7988 149.06H-9.10187L38.6738 56.8927L-9.10187 -35.2745H83.7988L131.574 56.8927L83.7988 149.06Z" fill="#40BFA3"/>
</g>
<path d="M48.5626 34.368C49.2516 34.121 49.9276 33.458 49.9276 32.34C49.9276 30.923 48.8356 29.935 47.0936 29.935H43.2586V39.1H47.0546C49.0046 39.1 50.2006 38.164 50.2006 36.526C50.2006 35.33 49.4206 34.628 48.5626 34.368ZM44.8836 31.248H46.7686C47.7176 31.248 48.3286 31.651 48.3286 32.483C48.3286 33.289 47.7826 33.796 46.7686 33.796H44.8836V31.248ZM46.8206 37.787H44.8836V35.083H46.8336C47.9516 35.083 48.5886 35.525 48.5886 36.422C48.5886 37.345 48.0036 37.787 46.8206 37.787ZM54.5824 39.269C56.4284 39.269 57.8584 38.151 57.8584 35.681C57.8584 33.224 56.4284 32.106 54.5824 32.106C52.7364 32.106 51.3064 33.224 51.3064 35.681C51.3064 38.151 52.7364 39.269 54.5824 39.269ZM54.5824 37.982C53.5294 37.982 52.8664 37.254 52.8664 35.681C52.8664 34.108 53.5294 33.393 54.5824 33.393C55.6224 33.393 56.2984 34.108 56.2984 35.681C56.2984 37.254 55.6224 37.982 54.5824 37.982ZM61.1478 39.178C61.4208 39.178 61.6808 39.139 61.8368 39.087V37.982C61.0178 38.047 60.8098 37.761 60.8098 37.033V29.545H59.2758V37.241C59.2758 38.645 59.8998 39.178 61.1478 39.178ZM63.7759 31.079C64.3089 31.079 64.7119 30.728 64.7119 30.208C64.7119 29.688 64.3089 29.324 63.7759 29.324C63.2429 29.324 62.8399 29.688 62.8399 30.208C62.8399 30.728 63.2429 31.079 63.7759 31.079ZM63.0089 39.1H64.5429V32.262H63.0089V39.1ZM70.9742 32.262V33.198C70.5062 32.457 69.7652 32.106 68.8422 32.106C67.2822 32.106 65.9952 33.185 65.9952 35.408C65.9952 37.631 67.2952 38.697 68.8682 38.697C69.7262 38.697 70.4282 38.398 70.8962 37.748V38.437C70.8962 39.62 70.1422 40.127 69.0242 40.127C68.1402 40.127 67.4382 39.802 67.1132 39.529L66.4502 40.595C66.9442 41.024 67.9582 41.362 69.0762 41.362C70.8962 41.362 72.4302 40.491 72.4302 38.268V32.262H70.9742ZM69.2062 37.436C68.2052 37.436 67.5552 36.773 67.5552 35.408C67.5552 34.056 68.2052 33.393 69.2062 33.393C70.2072 33.393 70.8832 34.017 70.8832 35.408C70.8832 36.799 70.2072 37.436 69.2062 37.436ZM76.1283 39.178C76.4013 39.178 76.6613 39.139 76.8173 39.087V37.982C75.9983 38.047 75.7903 37.761 75.7903 37.033V29.545H74.2563V37.241C74.2563 38.645 74.8803 39.178 76.1283 39.178ZM80.6283 31.534C81.5383 31.534 82.1753 30.91 82.1753 30.091C82.1753 29.272 81.5383 28.648 80.6283 28.648C79.7183 28.648 79.0813 29.272 79.0813 30.091C79.0813 30.91 79.7183 31.534 80.6283 31.534ZM80.6283 29.298C81.1483 29.298 81.4343 29.662 81.4343 30.091C81.4343 30.52 81.1483 30.871 80.6283 30.871C80.1213 30.871 79.8223 30.52 79.8223 30.091C79.8223 29.662 80.1213 29.298 80.6283 29.298ZM83.2933 37.319V34.498C83.2933 32.912 82.2273 32.093 80.4853 32.093C79.2373 32.093 78.3013 32.574 77.8333 33.055L78.4573 34.095C78.7823 33.796 79.4323 33.38 80.3423 33.38C81.3043 33.38 81.7723 33.874 81.7723 34.667V35.161C81.4473 35.044 80.9923 34.94 80.3813 34.94C78.6133 34.94 77.5993 35.824 77.5993 37.15C77.5993 38.424 78.5353 39.23 79.9393 39.23C80.8883 39.23 81.5383 38.866 81.8893 38.32C82.0193 38.762 82.3833 39.178 83.1893 39.178C83.4103 39.178 83.6573 39.139 83.8523 39.074V37.995C83.4363 37.995 83.2933 37.891 83.2933 37.319ZM80.3293 38.099C79.6143 38.099 79.1463 37.709 79.1463 37.098C79.1463 36.409 79.6663 35.98 80.6283 35.98C81.0963 35.98 81.4863 36.045 81.7723 36.175V36.643C81.7723 37.579 81.1873 38.099 80.3293 38.099ZM88.684 32.106C87.566 32.106 86.929 32.717 86.669 33.211V32.262H85.213V39.1H86.747V34.875C86.747 34.03 87.306 33.393 88.255 33.393C89.204 33.393 89.607 34.017 89.607 34.875V39.1H91.141V34.55C91.141 33.029 90.179 32.106 88.684 32.106ZM99.0962 30.65C99.3432 30.65 99.5642 30.689 99.7072 30.741L99.9802 29.597C99.7592 29.48 99.3172 29.376 98.8622 29.376C97.3932 29.376 96.5482 30.169 96.5482 31.781V32.262H95.4432V33.458H96.5482V39.1H98.0822V33.458H99.5122V32.262H98.0822V31.911C98.0822 31.04 98.3812 30.65 99.0962 30.65ZM104.081 32.171C102.872 32.171 102.352 33.068 102.17 33.77V32.262H100.714V39.1H102.248V35.98C102.248 34.472 102.924 33.744 103.912 33.744C104.146 33.744 104.38 33.783 104.523 33.822L104.848 32.301C104.718 32.236 104.432 32.171 104.081 32.171ZM110.982 37.319V34.498C110.982 32.912 109.916 32.093 108.174 32.093C106.926 32.093 105.99 32.574 105.522 33.055L106.146 34.095C106.471 33.796 107.121 33.38 108.031 33.38C108.993 33.38 109.461 33.874 109.461 34.667V35.161C109.136 35.044 108.681 34.94 108.07 34.94C106.302 34.94 105.288 35.824 105.288 37.15C105.288 38.424 106.224 39.23 107.628 39.23C108.577 39.23 109.227 38.866 109.578 38.32C109.708 38.762 110.072 39.178 110.878 39.178C111.099 39.178 111.346 39.139 111.541 39.074V37.995C111.125 37.995 110.982 37.891 110.982 37.319ZM108.018 38.099C107.303 38.099 106.835 37.709 106.835 37.098C106.835 36.409 107.355 35.98 108.317 35.98C108.785 35.98 109.175 36.045 109.461 36.175V36.643C109.461 37.579 108.876 38.099 108.018 38.099Z" fill="#e5f2ff"/>
<path d="M48.2416 47.9416L43.4916 51.4166V54.7916L47.2166 52.2416V65.5667H50.8166V47.9416H48.2416ZM54.2104 68.8417H56.7604L58.9604 62.1417H55.3354L54.2104 68.8417ZM69.2895 56.2416C70.7145 55.6166 71.9645 54.3166 71.9645 52.1667C71.9645 49.5666 69.7895 47.5916 66.1895 47.5916C63.2645 47.5916 61.3395 48.8416 60.4145 49.8916L62.0645 52.1166C62.7395 51.4916 63.9145 50.5417 65.7895 50.5417C67.4395 50.5417 68.3395 51.3666 68.3395 52.5666C68.3395 54.0667 67.1895 55.0916 64.8395 55.0916H64.3645V57.7916H64.8645C67.3645 57.7916 68.7895 58.6166 68.7895 60.3417C68.7895 61.9167 67.6895 62.9667 65.6645 62.9667C63.8145 62.9667 62.4395 62.2417 61.5645 61.3917L59.9395 63.7167C60.8895 64.8167 63.2145 65.9167 65.9145 65.9167C70.0895 65.9167 72.4645 63.5417 72.4645 60.5167C72.4645 58.3417 71.1145 56.8666 69.2895 56.2416ZM80.2672 47.5916C76.6172 47.5916 74.0922 50.0916 74.0922 53.7666C74.0922 57.2666 76.4672 59.3667 79.5672 59.3667C81.6922 59.3667 82.8672 58.4667 83.4672 57.5166C83.2172 60.0917 81.7672 62.7667 78.6672 62.7667C77.6672 62.7667 76.7672 62.5167 76.0422 62.0417L74.6922 64.5917C75.7172 65.4667 77.2172 65.8417 78.8922 65.8417C85.8422 65.8417 87.0922 59.0166 87.0922 55.4916C87.0922 50.4416 84.5672 47.5916 80.2672 47.5916ZM80.5422 56.6916C78.7922 56.6916 77.7172 55.5667 77.7172 53.6667C77.7172 51.7416 78.7672 50.4666 80.5422 50.4666C82.2922 50.4666 83.4422 51.6917 83.4422 53.5916C83.4422 55.3666 82.2672 56.6916 80.5422 56.6916ZM98.775 57.0167C101.225 57.0167 102.875 55.3917 102.875 52.3166C102.875 49.2166 101.225 47.6166 98.775 47.6166C96.3 47.6166 94.65 49.2166 94.65 52.3166C94.65 55.3917 96.3 57.0167 98.775 57.0167ZM97.95 65.5667H100.7L112.05 47.9416H109.3L97.95 65.5667ZM98.775 54.9666C97.525 54.9666 97.05 53.5666 97.05 52.3166C97.05 51.1167 97.525 49.6666 98.775 49.6666C100 49.6666 100.475 50.9416 100.475 52.3166C100.475 53.6667 100 54.9666 98.775 54.9666ZM111.25 65.8917C113.675 65.8917 115.35 64.2667 115.35 61.1917C115.35 58.1167 113.675 56.5166 111.25 56.5166C108.775 56.5166 107.125 58.1167 107.125 61.1917C107.125 64.2667 108.775 65.8917 111.25 65.8917ZM111.25 63.8417C109.975 63.8417 109.525 62.4667 109.525 61.1917C109.525 59.9917 109.975 58.5416 111.25 58.5416C112.475 58.5416 112.95 59.8167 112.95 61.1917C112.95 62.5417 112.475 63.8417 111.25 63.8417Z" fill="#e5f2ff"/>
</g>
<defs>
<clipPath id="clip0">
<rect width="140.676" height="184.335" fill="white" transform="translate(-9.10187 -35.2745)"/>
</clipPath>
</defs>
</svg>
